<?xml version="1.0" encoding="iso-8859-1"?>
<!-- Generator: Adobe Illustrator 19.0.0, SVG Export Plug-In . SVG Version: 6.00 Build 0)  -->
<svg version="1.1" id="Layer_1" xmlns="http://www.w3.org/2000/svg" xmlns:xlink="http://www.w3.org/1999/xlink" x="0px" y="0px"
	 viewBox="0 0 512 512" style="enable-background:new 0 0 512 512;" xml:space="preserve">
<g>
	<path style="fill:#FFDA71;" d="M124.928,115.792l72.768-21.152c17.024-4.944,34.688,1.84,44.608,15.424
		c30.368-24.688,54.288-49.584,71.824-70.16c-18.576-5.008-38-7.92-58.128-7.92c-107.648,0-197.76,76.352-219.136,177.728
		c23.664-4.944,45.904-11.632,66.896-19.504l-6.832-23.472C90.608,145.024,103.216,122.112,124.928,115.792z"/>
	<path style="fill:#FFDA71;" d="M254.384,142.416l14.048,48.336c6.304,21.712-6.288,44.64-28,50.944l-72.768,21.152
		c-21.712,6.304-44.64-6.288-50.944-28l-3.888-13.36c-24.912,9.072-51.664,16.48-80.192,21.68c-0.24,4.272-0.656,8.512-0.656,12.832
		c0,123.52,100.48,224,224,224s224-100.48,224-224c0-91.184-54.848-169.68-133.216-204.592
		C326.32,76.848,295.6,110.192,254.384,142.416z M261.584,383.392c-77.2,0-135.52-42.688-136.384-43.328l19.152-25.648
		c4.576,3.408,113.6,82.48,224.224,0l19.12,25.664C344.144,372.56,300.464,383.392,261.584,383.392z M355.296,138.592
		c24.608,0,44.56,19.952,44.56,44.56s-19.952,44.56-44.56,44.56s-44.56-19.952-44.56-44.56S330.688,138.592,355.296,138.592z"/>
</g>
<g>
	<path style="fill:#333333;" d="M366.416,25.312c-9.92-4.752-20.112-9.008-30.688-12.48C310.608,4.608,283.856,0,256,0
		c-26.512,0-52.08,4.032-76.128,11.504c-32.064,9.968-61.424,26.08-86.72,46.944s-46.496,46.496-62.256,75.52
		c-7.888,14.512-14.4,29.872-19.392,45.904c-3.568,11.456-6.032,23.344-7.968,35.424C1.824,226,0.752,236.896,0.4,248
		c-0.08,2.688-0.4,5.296-0.4,8c0,26.512,4.032,52.08,11.504,76.128c4.992,16.032,11.504,31.392,19.392,45.904
		c15.76,29.024,36.976,54.656,62.256,75.52s54.656,36.976,86.72,46.944C203.92,507.968,229.488,512,256,512
		c141.392,0,256-114.608,256-256C511.984,154.208,452.448,66.56,366.416,25.312z M255.984,32c20.128,0,39.552,2.912,58.128,7.92
		c-17.536,20.576-41.456,45.472-71.824,70.16c-9.92-13.584-27.568-20.384-44.608-15.424l-72.752,21.136
		c-21.712,6.32-34.32,29.232-28,50.944l6.832,23.488c-20.992,7.872-43.248,14.56-66.896,19.504C58.24,108.352,148.336,32,255.984,32
		z M255.984,480c-123.52,0-224-100.48-224-224c0-4.336,0.4-8.56,0.656-12.832c28.528-5.2,55.28-12.608,80.192-21.68l3.888,13.36
		c6.304,21.712,29.232,34.304,50.944,28l72.768-21.152c21.712-6.304,34.304-29.232,28-50.944l-14.048-48.336
		c41.216-32.224,71.92-65.568,92.384-91.008C425.136,86.32,479.984,164.816,479.984,256C479.984,379.504,379.504,480,255.984,480z"
		/>
	<circle style="fill:#333333;" cx="355.328" cy="183.152" r="44.56"/>
	<path style="fill:#333333;" d="M144.352,314.432L125.2,340.064c0.88,0.64,59.184,43.328,136.384,43.328
		c38.88,0,82.56-10.832,126.112-43.312l-19.12-25.664C257.952,396.912,148.928,317.84,144.352,314.432z"/>
</g>
<g>
</g>
<g>
</g>
<g>
</g>
<g>
</g>
<g>
</g>
<g>
</g>
<g>
</g>
<g>
</g>
<g>
</g>
<g>
</g>
<g>
</g>
<g>
</g>
<g>
</g>
<g>
</g>
<g>
</g>
</svg>
